<?xml version="1.0" encoding="UTF-8" standalone="no"?>
<!DOCTYPE svg PUBLIC "-//W3C//DTD SVG 1.1//EN" "http://www.w3.org/Graphics/SVG/1.1/DTD/svg11.dtd">
<!-- Created with Vectornator (http://vectornator.io/) -->
<svg height="100%" stroke-miterlimit="10" style="fill-rule:nonzero;clip-rule:evenodd;stroke-linecap:round;stroke-linejoin:round;" version="1.1" viewBox="0 0 1024 1024" width="100%" xml:space="preserve" xmlns="http://www.w3.org/2000/svg" xmlns:xlink="http://www.w3.org/1999/xlink">
<defs/>
<g id="Calque-1">
<g opacity="1">
<path d="M700.054 636.604C697.959 631.607 526.167 291.177 523.336 286.477C514.324 264.814 498.44 245.769 476.622 232.995C423.237 201.706 354.602 219.607 323.313 272.966C301.876 309.582 303.563 353.374 323.972 387.365C326.041 392.388 490.482 718.22 493.288 722.92C495.383 727.943 497.833 732.817 500.664 737.517C509.676 759.18 525.56 778.225 547.378 791.025C600.763 822.288 669.398 804.381 700.687 751.003C722.124 714.406 720.463 670.621 700.054 636.604" fill="#333333" fill-rule="nonzero" opacity="1" stroke="none"/>
<path d="M501.647 406.255C520.459 386.201 531.998 359.283 531.998 329.636C531.998 267.769 481.852 217.616 419.979 217.616C381.921 217.616 348.337 236.577 328.083 265.597C324.373 269.508 45.4353 613.299 42.3258 617.74C23.5394 637.793 12 664.712 12 694.359C12 756.226 62.1529 806.379 124.02 806.379C162.051 806.379 195.661 787.392 215.915 758.398C219.6 754.487 498.544 410.67 501.647 406.255" fill="#000000" fill-rule="nonzero" opacity="1" stroke="none"/>
<path d="M981.674 406.255C1000.49 386.201 1012 359.283 1012 329.636C1012 267.769 961.854 217.616 899.98 217.616C861.949 217.616 828.339 236.577 808.085 265.597C804.4 269.508 525.463 613.299 522.353 617.74C503.541 637.793 492.027 664.712 492.027 694.359C492.027 756.226 542.18 806.379 604.047 806.379C642.079 806.379 675.689 787.392 695.917 758.398C699.627 754.487 978.565 410.67 981.674 406.255" fill="#000000" fill-rule="nonzero" opacity="1" stroke="none"/>
</g>
</g>
</svg>
